<svg width="100" height="18" viewBox="0 0 100 18" xmlns="http://www.w3.org/2000/svg"><title>Shape</title><path d="M93.55.33c-2.332-.637-4.532-.345-6.6.82-1.695.98-2.968 2.492-3.815 4.532-.292.716-.345 1.246-.107 1.643.133.266.37.425.716.53.318.08.61.053.874-.106.133-.054.213-.16.292-.266l.238-.398c.054-.132.107-.29.16-.424.026-.16.08-.318.132-.45.478-1.272 1.378-2.28 2.676-3.02 1.51-.876 3.127-1.088 4.824-.637 1.722.45 2.994 1.43 3.868 2.94.875 1.512 1.087 3.128.637 4.825-.478 1.722-1.46 3.022-2.97 3.87-1.297.768-2.623 1.032-3.947.795-.16-.027-.318-.053-.45-.08-.16-.053-.292-.08-.425-.106-.345-.054-.635 0-.874.158-.266.133-.452.37-.53.69-.08.344-.054.635.105.9.24.424.875.69 1.935.77 2.067.105 3.843-.266 5.353-1.14 2.04-1.166 3.392-2.942 4.028-5.247.637-2.332.345-4.53-.848-6.598C97.658 2.29 95.882.938 93.55.33zM60.397.672c-.106.106-.212.24-.265.372-.08.158-.107.29-.107.45v15.053c0 .29.133.583.345.795.238.24.503.344.822.344.16 0 .318-.026.45-.08.16-.08.266-.16.37-.24.107-.105.186-.237.266-.37.054-.16.08-.29.08-.45V1.495c0-.318-.106-.583-.345-.822-.21-.21-.504-.344-.82-.344-.134 0-.293.025-.425.105-.16.053-.265.132-.37.238zM47.41 2.025c.107-.345.054-.637-.105-.9-.212-.372-.69-.61-1.458-.717-2.2-.264-4.135.08-5.83 1.06-2.067 1.167-3.392 2.942-4.028 5.274-.61 2.333-.345 4.532.847 6.6 1.166 2.04 2.94 3.392 5.274 4 2.332.636 4.532.345 6.573-.847 1.51-.876 2.73-2.227 3.657-4.082.45-.955.556-1.617.29-2.068-.132-.264-.37-.423-.715-.53-.318-.08-.61-.052-.874.107-.238.133-.424.37-.556.69-.054.133-.08.265-.132.423-.027.133-.08.265-.134.424-.476 1.245-1.377 2.278-2.676 3.047-1.51.848-3.127 1.06-4.85.61-1.695-.478-2.994-1.46-3.84-2.943-.876-1.51-1.088-3.127-.637-4.823.477-1.722 1.457-3.02 2.967-3.868 1.3-.77 2.624-1.034 3.95-.796.16 0 .317.053.476.08.133.052.292.08.45.08.16.026.292.026.45 0 .134 0 .267-.054.372-.107.292-.158.452-.397.53-.715zm30.53.53C76.43 1.07 74.656.328 72.56.328c-2.093 0-3.895.742-5.38 2.227-1.51 1.484-2.252 3.286-2.252 5.38v8.613c0 .132.027.265.107.397.052.16.158.266.264.37.105.134.212.213.37.267.133.053.292.106.425.106.317 0 .61-.133.82-.37.24-.213.345-.478.345-.77V7.935c0-1.458.53-2.703 1.564-3.764 1.034-1.032 2.305-1.536 3.736-1.536 1.458 0 2.677.503 3.736 1.537 1.06 1.06 1.564 2.307 1.564 3.765v8.587c0 .132.027.29.106.423.053.16.16.266.265.37.107.134.213.213.372.267.133.053.292.106.424.106.318 0 .583-.133.822-.37.238-.213.344-.504.344-.796V7.935c0-2.094-.74-3.896-2.25-5.38zM13.04 1.045c-.08.158-.105.29-.105.45v8.587c0 1.43-.504 2.703-1.564 3.736-1.034 1.034-2.28 1.564-3.737 1.564-1.43 0-2.704-.53-3.737-1.564-1.034-1.06-1.564-2.306-1.564-3.736V1.495c0-.318-.132-.583-.344-.822C1.775.463 1.484.33 1.166.33c-.132 0-.29.025-.424.105-.16.053-.265.132-.37.238-.107.106-.213.24-.266.372-.08.158-.106.29-.106.45v8.587c0 2.093.742 3.868 2.253 5.353 1.484 1.51 3.286 2.252 5.38 2.252 2.067 0 3.895-.742 5.38-2.252 1.51-1.485 2.252-3.26 2.252-5.353V1.495c0-.318-.106-.583-.344-.822-.238-.21-.503-.344-.82-.344-.133 0-.292.025-.425.105-.16.053-.264.133-.37.24-.107.104-.213.237-.267.37zM25.653.33c-2.093 0-3.895.74-5.38 2.225-1.51 1.485-2.252 3.287-2.252 5.38v8.587c0 .133.028.29.107.424.053.16.158.266.265.37.106.134.21.213.37.266.133.053.292.106.424.106.32 0 .61-.132.82-.37.24-.212.346-.503.346-.795V7.935c0-1.458.53-2.703 1.563-3.764 1.034-1.032 2.307-1.536 3.737-1.536 1.457 0 2.703.503 3.736 1.537 1.06 1.06 1.564 2.307 1.564 3.765v8.587c0 .132.026.29.106.423.053.16.16.266.265.37.106.134.212.213.372.267.132.053.29.106.423.106.32 0 .584-.133.822-.37.238-.213.345-.504.345-.796V7.935c0-2.094-.743-3.896-2.253-5.38C29.55 1.07 27.747.33 25.652.33z" fill="#000" fill-rule="evenodd"/></svg>