<svg width="203" height="56" viewBox="0 0 203 56" xmlns="http://www.w3.org/2000/svg" xmlns:xlink="http://www.w3.org/1999/xlink"><title>Group 3</title><defs><path d="M50.53 31.003c.037-.065.065-.132.094-.205.028-.073.052-.146.064-.226.012-.075.012-.148.012-.22-.004-.086-.012-.162-.028-.245-.012-.036-.004-.075-.012-.112L45.887 15.6V1.214c0-.504-.31-.95-.77-1.133-.47-.18-.994-.055-1.334.312l-8.107 8.93c-.953-2.093-3.06-3.547-5.496-3.547h-9.662c-2.435 0-4.535 1.454-5.492 3.546L6.914.393C6.574.03 6.05-.09 5.586.084c-.464.18-.77.628-.77 1.132V15.6L.045 29.994c-.012.037-.004.07-.012.106-.02.084-.032.165-.032.25-.005.074 0 .147.012.222.012.08.036.152.064.226.025.073.053.138.09.202.044.07.092.127.145.183.052.063.11.116.173.163.032.022.053.056.08.075l11.747 7.09 7.09 16.646.005.006v.002c0 .002.008.006.008.006.08.197.226.35.39.473.046.03.082.057.126.084.174.1.368.172.586.172h9.662c.218 0 .412-.074.59-.176.044-.024.077-.05.12-.08.167-.123.308-.277.39-.466.007-.008.01-.008.015-.014l7.09-16.653 11.746-7.09c.033-.018.05-.052.082-.07.065-.05.12-.104.178-.167.055-.06.1-.113.14-.18zM3.67 26.733H14.21l-1.788 9.01-9.78-5.904 1.026-3.107zm1.615-4.858H9.77c.18.904.58 1.718 1.118 2.43H4.475l.808-2.43zm1.946-6.077V13.87l5.54 5.572H6.087l1.077-3.26c.044-.124.064-.254.064-.384zm8.454 8.508c-1.57 0-2.915-1.017-3.416-2.43h6.836c-.5 1.413-1.84 2.43-3.42 2.43zm1.014 2.326c.973-.167 1.853-.57 2.612-1.144v23.276L14.53 37.54l2.168-10.908zm5.03-18.428h7.25V49.855c-.708-.538-1.52-.94-2.42-1.126V15.797c0-.67-.54-1.214-1.207-1.214-.665 0-1.206.544-1.206 1.214V48.73c-.9.185-1.712.587-2.415 1.125V8.204zm3.623 42.835c1.576 0 2.904 1.017 3.405 2.43h-6.808c.505-1.413 1.83-2.43 3.404-2.43zm6.037-25.552c.76.575 1.644.977 2.62 1.144l2.165 10.91-4.784 11.222V25.488zm12.142-9.306l1.08 3.26h-6.676l5.536-5.57v1.926c0 .13.023.26.06.384zm-2.597 5.693h4.482l.808 2.43h-6.41c.534-.712.938-1.526 1.12-2.43zm-2.5 0c-.5 1.414-1.845 2.43-3.42 2.43-1.574 0-2.92-1.016-3.416-2.43h6.836zm-1.946 4.858H47.03l1.026 3.108-9.776 5.903-1.793-9.01zm6.982-16.3l-7.245 7.293v-5.4l7.244-7.98v6.088zm-9.664 1.42v7.59h-2.42V8.428c1.41.5 2.42 1.84 2.42 3.422zM19.31 8.428V19.44h-2.414v-7.59c0-1.583 1.01-2.92 2.414-3.423zm-4.83 3.895v5.4l-7.25-7.29v-6.09l7.25 7.98z" id="a"/></defs><g fill="#000" fill-rule="evenodd"><path d="M68.296 38.348c-1.12 0-2.064-.32-2.832-.96-.304-.256-.604-.644-.9-1.164-.296-.52-.444-1.228-.444-2.124 0-.24.084-.44.252-.6.168-.16.372-.24.612-.24.224 0 .416.08.576.24.16.16.24.36.24.6 0 .528.076.96.228 1.296.152.336.348.596.588.78.24.184.508.312.804.384.296.072.588.108.876.108.16 0 .388-.02.684-.06.296-.04.588-.148.876-.324.288-.176.54-.432.756-.768.216-.336.324-.808.324-1.416 0-.592-.084-1.112-.252-1.56-.168-.448-.4-.848-.696-1.2-.296-.352-.636-.676-1.02-.972-.384-.296-.792-.596-1.224-.9-.384-.272-.772-.56-1.164-.864-.392-.304-.748-.64-1.068-1.008-.752-.88-1.136-1.896-1.152-3.048 0-.064.004-.192.012-.384s.036-.416.084-.672c.144-.816.464-1.496.96-2.04.72-.752 1.688-1.128 2.904-1.128 1.232 0 2.184.376 2.856 1.128.24.272.432.584.576.936.144.352.232.736.264 1.152.032.288.044.532.036.732-.008.2-.02.316-.036.348-.048.208-.104.392-.168.552-.08.128-.176.24-.288.336-.112.096-.28.128-.504.096-.224-.032-.384-.116-.48-.252-.096-.136-.16-.276-.192-.42-.048-.176-.056-.36-.024-.552.032-.224.032-.44 0-.648-.032-.176-.08-.372-.144-.588-.064-.216-.168-.412-.312-.588-.32-.384-.848-.576-1.584-.576-.736 0-1.288.208-1.656.624-.176.176-.308.376-.396.6-.088.224-.148.424-.18.6-.048.224-.064.44-.048.648v.072c0 .4.064.76.192 1.08.128.32.308.616.54.888.232.272.512.54.84.804.328.264.7.548 1.116.852.464.304.916.628 1.356.972.44.344.852.748 1.236 1.212.864 1.056 1.296 2.312 1.296 3.768 0 .736-.124 1.372-.372 1.908-.248.536-.576.976-.984 1.32-.408.344-.872.6-1.392.768-.52.168-1.044.252-1.572.252zm16.92-17.952c.224 0 .42.084.588.252.168.168.252.372.252.612 0 .224-.084.42-.252.588-.168.168-.364.252-.588.252h-2.904v15.312c0 .24-.08.44-.24.6-.16.16-.36.24-.6.24-.224 0-.42-.08-.588-.24-.168-.16-.252-.36-.252-.6V22.1H77.68c-.24 0-.444-.084-.612-.252-.168-.168-.252-.364-.252-.588 0-.24.084-.444.252-.612.168-.168.372-.252.612-.252h7.536zM94.6 38.492c-1.2 0-2.144-.384-2.832-1.152-.544-.608-.88-1.368-1.008-2.28-.048-.288-.072-.536-.072-.744v-13.08c0-.224.084-.42.252-.588.168-.168.364-.252.588-.252.24 0 .444.084.612.252.168.168.252.364.252.588V33.98l-.012.264c-.008.16.008.352.048.576.04.224.104.464.192.72.088.256.22.48.396.672.352.384.88.576 1.584.576.736 0 1.296-.2 1.68-.6.176-.192.312-.404.408-.636.096-.232.16-.46.192-.684.048-.24.064-.488.048-.744V21.26c0-.24.084-.444.252-.612.168-.168.372-.252.612-.252.224 0 .42.084.588.252.168.168.252.372.252.612v12.792c0 .064-.004.196-.012.396s-.036.436-.084.708c-.144.88-.488 1.608-1.032 2.184-.704.768-1.672 1.152-2.904 1.152zm13.728-.24h-3.168c-.24 0-.44-.084-.6-.252-.16-.168-.24-.364-.24-.588V21.236c0-.224.08-.42.24-.588.16-.168.36-.252.6-.252h3.168c.48 0 .952.084 1.416.252.464.168.88.428 1.248.78.368.352.668.8.9 1.344.232.544.348 1.184.348 1.92v9.24c0 .752-.116 1.396-.348 1.932-.232.536-.532.984-.9 1.344-.368.36-.784.624-1.248.792-.464.168-.936.252-1.416.252zM106 36.548H108.328c.592 0 1.088-.184 1.488-.552.496-.464.744-1.152.744-2.064v-9.24c0-.88-.248-1.568-.744-2.064-.416-.368-.912-.552-1.488-.552H106v14.472zm12.888 1.704c-.24 0-.44-.084-.6-.252-.16-.168-.24-.364-.24-.588V21.236c0-.224.08-.42.24-.588.16-.168.36-.252.6-.252.224 0 .42.084.588.252.168.168.252.364.252.588v16.176c0 .224-.084.42-.252.588-.168.168-.364.252-.588.252zm10.944.288c-1.216 0-2.168-.384-2.856-1.152-.528-.576-.864-1.336-1.008-2.28-.048-.288-.072-.536-.072-.744 0-.208.008-.352.024-.432v-9.384c0-.736.116-1.376.348-1.92.232-.544.532-.996.9-1.356.368-.36.784-.624 1.248-.792.464-.168.936-.252 1.416-.252.288 0 .68.056 1.176.168.496.112.984.376 1.464.792.16.144.32.312.48.504.16.192.304.428.432.708.128.28.236.596.324.948.088.352.132.752.132 1.2v9.948c0 .2-.024.436-.072.708-.16.88-.504 1.608-1.032 2.184-.72.768-1.688 1.152-2.904 1.152zm-2.232-4.512v.264c0 .16.016.352.048.576.032.224.092.464.18.72.088.256.228.48.42.672.352.384.88.576 1.584.576.72 0 1.272-.2 1.656-.6.176-.192.312-.404.408-.636.096-.232.164-.452.204-.66.04-.208.06-.384.06-.528v-9.864c0-.608-.096-1.084-.288-1.428-.192-.344-.416-.604-.672-.78-.256-.176-.516-.288-.78-.336-.264-.048-.46-.072-.588-.072-.592 0-1.088.184-1.488.552-.496.464-.744 1.152-.744 2.064V34.028zm35.664 3.936v.024c-.064.064-.12.104-.168.12 0 .016-.008.024-.024.024l-.024.024h-.024l-.024.024h-.024c-.048.016-.104.04-.168.072H162.496c-.032 0-.056-.008-.072-.024h-.048c-.064-.016-.128-.048-.192-.096-.016-.016-.032-.028-.048-.036-.016-.008-.032-.02-.048-.036l-.048-.048h-.024l-.024-.024v-.024c-.016 0-.024-.004-.024-.012s-.008-.012-.024-.012v-.024c0-.016-.004-.024-.012-.024s-.012-.008-.012-.024h-.024c0-.032-.008-.048-.024-.048v-.024l-.024-.048c0-.016-.004-.028-.012-.036-.008-.008-.012-.02-.012-.036l-2.52-7.848-2.52 7.848c-.016.016-.024.04-.024.072h-.024c0 .032-.008.048-.024.048v.024l-.024.048c-.016.016-.024.032-.024.048-.016 0-.024.008-.024.024l-.024.024-.024.024-.024.024-.048.048h-.024c-.032.032-.064.056-.096.072-.048.048-.104.08-.168.096H156.16c-.016.016-.032.024-.048.024H155.8c-.048-.016-.104-.04-.168-.072h-.048v-.024h-.024l-.024-.024c-.016 0-.024-.008-.024-.024h-.024c-.032-.016-.072-.048-.12-.096v-.024h-.024c0-.016-.008-.024-.024-.024 0-.016-.008-.024-.024-.024v-.024l-.024-.024-.024-.024-.072-.144v-.048c-.016 0-.024-.008-.024-.024V37.58c-.016-.016-.024-.04-.024-.072l-1.512-16.152c-.032-.224.024-.428.168-.612.144-.184.336-.292.576-.324.224-.032.428.024.612.168.184.144.292.328.324.552l1.296 12.432 1.896-6.72.024-.024v-.024c0-.016.008-.024.024-.024v-.048l.048-.048v-.024l.024-.024.024-.024c0-.016.008-.024.024-.024v-.024h.024v-.024l.024-.024c.016 0 .024-.008.024-.024h.024v-.024l.024-.024c.032-.032.068-.052.108-.06.04-.008.076-.028.108-.06h.048l.024-.024h.096v-.024H159.424l.024.024H159.52c.016 0 .024.004.024.012s.008.012.024.012h.048c.032.032.064.052.096.06s.064.028.096.06l.024.024c.016 0 .024.008.024.024h.024v.024h.024v.024c.016 0 .024.008.024.024h.024v.024l.024.024.024.024c0 .016.008.024.024.024v.048h.024v.048c.016 0 .024.008.024.024l.024.024v.048l1.968 6.72 1.488-12.432c.032-.224.14-.408.324-.552.184-.144.388-.2.612-.168.224.032.412.14.564.324.152.184.212.388.18.612l-1.752 16.152c-.016.016-.024.04-.024.072v.048l-.024.024v.024c0 .016-.008.032-.024.048 0 .032-.016.064-.048.096 0 .016-.008.032-.024.048v.024h-.024v.024l-.024.024v.024h-.024zm10.272.576c-1.216 0-2.168-.384-2.856-1.152-.528-.576-.864-1.336-1.008-2.28-.048-.288-.072-.536-.072-.744 0-.208.008-.352.024-.432v-9.384c0-.736.116-1.376.348-1.92.232-.544.532-.996.9-1.356.368-.36.784-.624 1.248-.792.464-.168.936-.252 1.416-.252.288 0 .68.056 1.176.168.496.112.984.376 1.464.792.16.144.32.312.48.504.16.192.304.428.432.708.128.28.236.596.324.948.088.352.132.752.132 1.2v9.948c0 .2-.024.436-.072.708-.16.88-.504 1.608-1.032 2.184-.72.768-1.688 1.152-2.904 1.152zm-2.232-4.512v.264c0 .16.016.352.048.576.032.224.092.464.18.72.088.256.228.48.42.672.352.384.88.576 1.584.576.72 0 1.272-.2 1.656-.6.176-.192.312-.404.408-.636.096-.232.164-.452.204-.66.04-.208.06-.384.06-.528v-9.864c0-.608-.096-1.084-.288-1.428-.192-.344-.416-.604-.672-.78-.256-.176-.516-.288-.78-.336-.264-.048-.46-.072-.588-.072-.592 0-1.088.184-1.488.552-.496.464-.744 1.152-.744 2.064V34.028zm18.552 4.224h-6.384c-.224 0-.42-.084-.588-.252-.168-.168-.252-.364-.252-.588V21.236c0-.224.084-.42.252-.588.168-.168.364-.252.588-.252.24 0 .44.084.6.252.16.168.24.364.24.588v15.312h5.544c.224 0 .42.084.588.252.168.168.252.372.252.612 0 .224-.084.42-.252.588-.168.168-.364.252-.588.252zm11.472-17.856c.24 0 .444.084.612.252.168.168.252.364.252.588 0 .24-.084.444-.252.612-.168.168-.372.252-.612.252h-4.92v7.368h3.552c.24 0 .44.084.6.252.16.168.24.372.24.612 0 .224-.08.42-.24.588-.16.168-.36.252-.6.252h-3.552v6.24c0 .224-.084.42-.252.588-.168.168-.364.252-.588.252-.24 0-.444-.084-.612-.252-.168-.168-.252-.364-.252-.588V21.236c0-.224.084-.42.252-.588.168-.168.372-.252.612-.252h5.76z"/><use xlink:href="#a"/></g></svg>