<svg width="116" height="142" viewBox="0 0 116 142" xmlns="http://www.w3.org/2000/svg" xmlns:xlink="http://www.w3.org/1999/xlink"><title>C7-beeldmerk</title><defs><path id="a" d="M.06.273h115.656V142H.06"/><path id="c" d="M.06.273h115.656V142H.06"/><path id="e" d="M.06.273h115.656V142H.06"/></defs><g fill="none" fill-rule="evenodd"><mask id="b" fill="#fff"><use xlink:href="#a"/></mask><path d="M22.81 88.893c-1.215-.78-2.723-1.25-3.345-1.042-.623.208-.814 1.51-.42 2.896l4.892 20.336c.392 1.39 1.838 2.17 3.213 1.724l5.233-1.686c1.375-.44 2.5-1.984 2.5-3.427v-8.52c0-1.443-.995-3.26-2.212-4.04l-9.86-6.24" fill="#653982" mask="url(#b)"/><path d="M21.11 114.752c1.377-.446 2.178-1.944 1.786-3.33l-5.962-21.1c-.392-1.387-1.834-2.155-3.204-1.704L2.492 92.32C1.122 92.768 0 94.318 0 95.764v21.997c0 1.44.01 2.324.163 2.585.436.763 1.362.717 2.736.272l18.21-5.865" fill="#7E5B97" mask="url(#b)"/><path d="M.712 32.902C.322 31.512 0 31.558 0 33v25.124c0 1.444.992 1.987 2.206 1.207l2.847-1.833c1.215-.784 1.886-2.557 1.494-3.946L.712 32.903" fill="#8B6CA2" mask="url(#b)"/><path d="M2.206 60.63C.992 61.412 0 63.23 0 64.674v5.586c0 1.447.993 3.264 2.21 4.042l9.848 5.762c1.215.78 1.89.284 1.497-1.108l-5.27-19.252c-.393-1.39-1.706-1.885-2.92-1.105l-3.16 2.03" fill="#653982" mask="url(#b)"/><path d="M81.01 96.336c-1.374.448-1.564 1.53-.426 2.418l11.618 9.515c.29.175 1.19.733.617-.59l-5.235-10.41c-.577-1.326-1.75-2.26-3.126-1.82l-3.45.886" fill="#AA94BA"/><mask id="d" fill="#fff"><use xlink:href="#c"/></mask><path d="M32.67 93.837c1.218.775 2.213.237 2.213-1.21V84.28c0-1.444-1.122-2.257-2.492-1.81l-9.028 2.975c-1.37.458-1.5 1.46-.286 2.237l9.595 6.155M15.016 84.176c-.22-.79-1.396-2.073-2.612-2.85L2.21 75.605C.992 74.822 0 75.365 0 76.81v12.55c0 1.444 1.122 2.26 2.492 1.807l10.44-4.74c1.37-.448 2.31-1.466 2.084-2.254" fill="#572A79" mask="url(#d)"/><path d="M7.51 52.932c.392 1.39 1.706 1.89 2.92 1.108l24.422-15.722c1.215-.78 1.832-2.543 1.372-3.91l-3.35-12.08c-.46-1.373-2.008-2.64-3.44-2.825l-17.262-2.24c-1.43-.183-3.723.04-5.09.502l-4.595 1.55C1.12 19.766 0 21.327 0 22.77v.96c0 1.442.32 3.76.712 5.148L7.51 52.932" fill="#8B6CA2" mask="url(#d)"/><path d="M0 135.27c0 5.833 2.8 6.57 6.636 6.71 0 0 .535.062-.028-1.478-1.47-3.8-5.302-13.685-5.725-14.807-.933-2.755-.883.257-.883.257v9.318" fill="#572A79" mask="url(#d)"/><path d="M34.164 40.14c-6.25 3.968-18.933 12.05-21.89 14.012-3.894 2.586-1.375 9.69-1.375 9.69l5.886 17.984s1.257 2.874 3.628 2.325c2.598-.596 8.728-1.692 11.764-2.757 3.037-1.067 2.705-3.547 2.705-3.547v-1.94c0-5.637 2.16-8.01 7.148-6.5l6.884 4.656s.99.403.73-.24c-.265-.647-10.3-30.028-10.3-30.028s-1.584-5.934-5.18-3.653M16.19 85.777c.346 1.22 1.465 1.943 2.486 1.602 1.024-.338.745-1.335-.623-2.22-1.365-.878-2.204-.602-1.862.617" fill="#572A79"/><path d="M41.265 35.502c-1.215.784-1.83 2.543-1.374 3.91l10.805 32.193c.46 1.368 1.96 2.12 3.33 1.67L71.23 67.47c1.372-.456 2.026-1.91 1.448-3.23l-7.253-17.813c-.578-1.328-1.986-3.124-3.132-4L49.846 32.91c-1.145-.875-3.08-.954-4.29-.177l-4.29 2.77M86.208 62.902c1.372-.453 1.776-.912.63-1.787l-16.64-12.69c-1.146-.873-1.617-.508-1.04.818l6.313 14.445c.575 1.326 2.168 2.035 3.54 1.585l7.198-2.37M55.182 74.97c-1.37.45-2.3 1.39-2.066 2.085.234.695 1.36 1.99 2.5 2.873l19.547 15.14c1.144.88 3.2 1.245 4.573.805l4.207-1.342c1.372-.445 2.03-1.888 1.454-3.21L75.83 70.86c-.57-1.32-2.164-2.034-3.535-1.585L55.182 74.97" fill="#714B8D"/><path d="M35.557 21.972c-1.15-.876-1.713-.472-1.25.895l3.638 10.442c.46 1.363 1.83 1.846 3.044 1.066l3.64-2.344c1.21-.78 1.266-2.136.12-3.012l-9.193-7.048" fill="#AA94BA"/><path d="M105.802 87.545c1.342-.38.686-1.754.327-3.315l-1.26-5.148c-.63-2.742-1.175-5.15-1.532-5.424l-.526-.366c-1.2-.676-1.968-.412-1.825 1.02l1.186 11.635c.146 1.437 1.39 2.25 2.765 1.808l.864-.21" fill="#8B6CA2"/><path d="M25.06 14.004c-1.147-.875-3.208-1.213-4.575-.752l-6.062 2.04c-1.37.46-1.318.99.115 1.177L28.5 18.276c1.432.186 1.666-.38.518-1.252l-3.96-3.02" fill="#7E5B97"/><path d="M95.03 108.858c.573 1.323 1.977 3.13 3.118 4.014l4.077 3.153c1.137.888 1.953.432 1.807-1.004l-2.558-22.6c-.145-1.434-1.39-2.245-2.76-1.8l-7.128 3.36c-1.376.438-2.025 1.885-1.452 3.21l4.895 11.668" fill="#653982"/><g><mask id="f" fill="#fff"><use xlink:href="#e"/></mask><path d="M79.67 66.902c-1.37.456-2.022 1.904-1.446 3.233l8.94 20.598c.574 1.325 2.17 2.05 3.544 1.606l7.985-3.49c1.375-.44 2.38-1.978 2.235-3.416l-1.13-12.03c-.147-1.435-1.206-3.33-2.354-4.202l-5.378-4.1c-1.146-.873-3.21-1.226-4.58-.773L79.672 66.9" fill="#7E5B97" mask="url(#f)"/><path d="M4.607 17.443c1.37-.46 1.316-.988-.113-1.17L2.6 16.025c-1.43-.188-2.6.404-2.6 1.32 0 .904 1.12 1.273 2.487.81l2.12-.713" fill="#714B8D" mask="url(#f)"/><path d="M20.204 116.195l-15.537 5.708s-3.192 1.066-1.225 6.125c.688 1.766.37 1.13 3.884 11.266 0 0 1.066 2.68 2.65 2.696 1.888.016 18.834 0 18.834 0 .268 0 .907.117 1.618-.48 0 0 .82-.33.214-2.68-.637-2.455-5.68-20.153-5.68-20.153-1.205-3.964-4.758-2.482-4.758-2.482M17.605 13.063s4.354-1.416.865-4.084C14.98 6.32 7.798.847 7.798.84 3.033-.674 0 .625 0 7.34c0 0 0 2.403.034 4.624C.07 14.19 2.51 14.91 2.51 14.91l4.857.628c1.416.112 4.332-.472 4.332-.472l5.905-2.003" fill="#572A79" mask="url(#f)"/><path d="M31.728 138.665c.575 1.97 1.055 1.412 1.31 1.17 1.03-1.004 1.845-2.413 1.845-4.34 0 0 .07-16.088 0-20.14.186-3.823-2.182-3.168-2.182-3.168-3.425 1.124-2.105.665-5 1.596-2.894.923-1.256 6.15-1.256 6.15l5.284 18.732" fill="#7E5B97" mask="url(#f)"/><path d="M109.42 98.04l-1.51-6.277s-.712-3.12-1.852-3.19c-.99-.062-2.05.598-2.05.598s-1.448.716-1.15 3.612c.576 5.716 2.68 20.76 2.968 23.267.324 2.873 2.112 4.122 2.112 4.122s3.523 2.724 6.05 4.664c2.526 1.937 1.537-1.514 1.537-1.514l-2.05-8.74c-1.153-4.658-2.36-10.242-4.055-16.542" fill="#572A79" mask="url(#f)"/></g></g></svg>